<svg id="Layer_1" data-name="Layer 1" xmlns="http://www.w3.org/2000/svg" viewBox="0 0 162 162"><defs><style>.cls-1{fill:#d9ceb6;}.cls-2{fill:#55aa67;}</style></defs><path class="cls-1" d="M99.87,54.71c-4.58,0-7.92,2.9-7.92,6.79s2.06,6.79,5.66,6.79c2.68,0,4-1.8,4-4.53,0-2.3-2.21-4.53-4.26-4.27.28-.84,1.64-1.38,3.13-1.38,3.57,0,5.65,2.22,5.65,5.65,0,2.94-1.59,6.23-7.92,6.23-2.72,0-7.35-1.52-7.35-8.49,0-5,4.38-7.92,9.62-7.92,4.61,0,10.18,2.54,10.18,10.75,0,12.93-12.48,15-19.23,15.84A13.07,13.07,0,0,1,101,92.61c0,8.6-6.17,16.41-21.55,16.41-15.62,0-27.09-7.53-27.09-17.54,0-10.84,9.41-14.24,17.53-15.84C65,74.21,60.27,71.26,60.27,64.9,60.27,58,68.18,53,78.94,53c5.24,0,9.62,2.95,9.62,7.92,0,7-4.63,9-7.36,9-6.32,0-7.92-3.85-7.92-6.79,0-3.43,2.37-5.37,5.66-5.37a3.84,3.84,0,0,1,3.13,1.41,4.15,4.15,0,0,0-4.26,4c0,2.73,1.27,5.09,4,5.09,3.6,0,5.66-3.34,5.66-7.35s-3.35-6.79-7.92-6.79c-5.17,0-10.19,3.14-10.19,11.31,0,5.72,2.19,7.78,6.79,10.18-6,2.9-9.61,7.21-9.61,15.84,0,10.37,7,16.41,13.57,16.41,14.31,0,19.8-8.09,19.8-15.28,0-7.74-7.84-11.88-12.52-11.88-6.39,0-13.3,4-14.07,13-4.55-13.09,7.67-20.36,17-20.36,8.56,0,19.24,2,19.24-9.62C109.49,56.61,104.11,54.71,99.87,54.71Z"/><ellipse class="cls-2" cx="86.01" cy="93.46" rx="8.2" ry="7.64"/><path class="cls-2" d="M9.56,74.76l-.82,7.61L6,82.08l2-18.2,2.7.29-.82,7.61,20,2.15-.32,3Z"/><path class="cls-2" d="M12.35,48.35l1.93-2.53,12.13,4.45c1.89.69,3.92,1.45,5.82,2.18l0-.05c-1.21-1.63-2.43-3.36-3.65-5.08L21.17,36.77,22.5,35l12.17,4.4c2,.72,3.88,1.41,5.85,2.16l0,0c-1.21-1.64-2.48-3.4-3.67-5.06L29.4,26l1.83-2.41L45.07,43l-1.93,2.53L31.71,41.44q-2.66-1-5.18-1.93l0,.05c1.07,1.45,2.18,3,3.26,4.51l7,9.88-2,2.58Z"/><path class="cls-2" d="M47.1,14.48l12.18-5,1,2.51L50.9,15.85l2.63,6.42,8.25-3.39,1,2.42-8.25,3.39,3,7.25,9.67-4,1,2.51L55.76,35.59Z"/><path class="cls-2" d="M80.46,6.37l3,.22L82,26.63l10.75.79-.2,2.7-13.73-1Z"/><path class="cls-2" d="M113.18,13.62l11.64,6.82-1.37,2.34-9.06-5.3-3.72,6.36,8,4.66-1.33,2.26-8-4.66-5.11,8.72-2.58-1.51Z"/><path class="cls-2" d="M138.59,38.29l-4.43-6.24,2.2-1.56L147,45.4,144.76,47l-4.43-6.24L124,52.37l-1.73-2.44Z"/><path class="cls-2" d="M153.43,61.58l.41,3-9.52,1.33L146,78.16l9.51-1.32.42,3-22.59,3.14L133,80l10.39-1.45-1.7-12.29-10.39,1.44-.42-3Z"/><path class="cls-2" d="M19.32,117.1a8.68,8.68,0,0,0,1.25,3.08c1.39,2,2.93,1.42,4.92,0l13.45-9.3,1.7,2.46-13.31,9.21c-2.23,1.54-3.61,2-4.86,1.9a5.63,5.63,0,0,1-4.15-2.68,9.23,9.23,0,0,1-1.34-3.1Z"/><path class="cls-2" d="M53.05,124.42l2.45,1.49-3.77,24.38L49,148.63l1.12-6.77-8.78-5.32-5.51,4.1-2.61-1.59Zm-9.49,10.42,7,4.25.86-5c.33-1.93.69-4,1.07-5.94l-.06,0c-1.56,1.23-3.2,2.48-4.89,3.74Z"/><path class="cls-2" d="M74.67,142c-1-1.51-2-3-3-4.57l-.07,0c0,1.35,0,3.09,0,4.94l-.26,12.85-2.9-.06.48-22.8,2.89.06,7.86,11.76L88,132.77l2.87.06-.48,22.8-3-.06.27-12.85c0-1.86.1-3.59.16-4.95l-.06,0c-1,1.49-2.08,3-3.15,4.44l-5.12,7Z"/><path class="cls-2" d="M100,129.41l11.59-6.23,1.29,2.38-9,4.82,3.27,6.1,7.86-4.22,1.23,2.31-7.85,4.21,3.71,6.91,9.21-4.95,1.29,2.39-11.85,6.36Z"/><path class="cls-2" d="M132.52,128.44a11.91,11.91,0,0,0,6-4.11c1.63-2.16,1.81-4.44-.18-5.93-2.34-1.77-4.35.07-6.84,1.95-2.66,2-5.59,3.71-8.92,1.2s-3.31-6.17-.64-9.72a12.91,12.91,0,0,1,5.3-4.21l2.52,1.9a12.22,12.22,0,0,0-5.67,4c-1.54,2-1.74,4.14.13,5.54,2.26,1.71,4.23-.12,6.53-1.86,2.75-2.07,5.78-3.89,9.25-1.27s3.44,6.42.69,10.07a14.06,14.06,0,0,1-5.57,4.4Z"/><circle class="cls-2" cx="20.27" cy="97.82" r="3.38"/><circle class="cls-2" cx="141.73" cy="97.82" r="3.38"/></svg>